<mxfile host="app.diagrams.net" modified="2023-04-06T15:33:13.467Z" agent="Mozilla/5.0 (X11; Linux x86_64) AppleWebKit/537.36 (KHTML, like Gecko) Chrome/111.0.0.0 Safari/537.36" etag="XvPhEJj4Vr35c2W3hBcH" version="21.1.4" type="device">
  <diagram name="Сторінка-1" id="xTo7LiLZvz-YdanKkgFt">
    <mxGraphModel dx="3086" dy="849" grid="1" gridSize="10" guides="1" tooltips="1" connect="1" arrows="1" fold="1" page="1" pageScale="1" pageWidth="827" pageHeight="1169" math="0" shadow="0">
      <root>
        <mxCell id="0" />
        <mxCell id="1" parent="0" />
        <mxCell id="HVoTeRBBNDDQcVebBhWy-1" value="ioc.core.ts" style="swimlane;whiteSpace=wrap;html=1;rounded=1;dashed=1;fillColor=#dae8fc;strokeColor=#6c8ebf;" parent="1" vertex="1">
          <mxGeometry x="-1340" y="350" width="120" height="590" as="geometry" />
        </mxCell>
        <mxCell id="HVoTeRBBNDDQcVebBhWy-28" value="firebase.integration.ts" style="rounded=1;whiteSpace=wrap;html=1;fillColor=#d5e8d4;strokeColor=#82b366;" parent="1" vertex="1">
          <mxGeometry x="-970" y="820" width="220" height="40" as="geometry" />
        </mxCell>
        <mxCell id="HVoTeRBBNDDQcVebBhWy-29" style="edgeStyle=orthogonalEdgeStyle;rounded=1;orthogonalLoop=1;jettySize=auto;html=1;entryX=1;entryY=0.5;entryDx=0;entryDy=0;fillColor=#dae8fc;strokeColor=#6c8ebf;" parent="1" source="HVoTeRBBNDDQcVebBhWy-30" target="HVoTeRBBNDDQcVebBhWy-28" edge="1">
          <mxGeometry relative="1" as="geometry" />
        </mxCell>
        <mxCell id="HVoTeRBBNDDQcVebBhWy-30" value="abstract.integration.ts" style="rounded=1;whiteSpace=wrap;html=1;fillColor=#dae8fc;strokeColor=#6c8ebf;" parent="1" vertex="1">
          <mxGeometry x="-660" y="820" width="180" height="40" as="geometry" />
        </mxCell>
        <mxCell id="HVoTeRBBNDDQcVebBhWy-34" value="extends" style="edgeLabel;html=1;align=center;verticalAlign=middle;resizable=0;points=[];labelBackgroundColor=#CDA2BE;" parent="1" vertex="1" connectable="0">
          <mxGeometry x="-699.9999999999999" y="840" as="geometry" />
        </mxCell>
        <mxCell id="HVoTeRBBNDDQcVebBhWy-64" value="&lt;span style=&quot;color: rgb(0, 0, 0); font-family: Helvetica; font-size: 11px; font-style: normal; font-variant-ligatures: normal; font-variant-caps: normal; font-weight: 400; letter-spacing: normal; orphans: 2; text-align: center; text-indent: 0px; text-transform: none; widows: 2; word-spacing: 0px; -webkit-text-stroke-width: 0px; text-decoration-thickness: initial; text-decoration-style: initial; text-decoration-color: initial; float: none; display: inline !important;&quot;&gt;bind&lt;/span&gt;&lt;br style=&quot;border-color: var(--border-color); color: rgb(0, 0, 0); font-family: Helvetica; font-size: 11px; font-style: normal; font-variant-ligatures: normal; font-variant-caps: normal; font-weight: 400; letter-spacing: normal; orphans: 2; text-align: center; text-indent: 0px; text-transform: none; widows: 2; word-spacing: 0px; -webkit-text-stroke-width: 0px; text-decoration-thickness: initial; text-decoration-style: initial; text-decoration-color: initial;&quot;&gt;&lt;span style=&quot;color: rgb(0, 0, 0); font-family: Helvetica; font-size: 11px; font-style: normal; font-variant-ligatures: normal; font-variant-caps: normal; font-weight: 400; letter-spacing: normal; orphans: 2; text-align: center; text-indent: 0px; text-transform: none; widows: 2; word-spacing: 0px; -webkit-text-stroke-width: 0px; text-decoration-thickness: initial; text-decoration-style: initial; text-decoration-color: initial; float: none; display: inline !important;&quot;&gt;Symbol(&#39;TelegramIntegration&#39;)&lt;/span&gt;" style="edgeStyle=orthogonalEdgeStyle;rounded=0;orthogonalLoop=1;jettySize=auto;html=1;fillColor=#d5e8d4;strokeColor=#82b366;labelBackgroundColor=#B5739D;" parent="1" source="HVoTeRBBNDDQcVebBhWy-53" edge="1">
          <mxGeometry relative="1" as="geometry">
            <mxPoint x="-1220" y="420" as="targetPoint" />
          </mxGeometry>
        </mxCell>
        <mxCell id="HVoTeRBBNDDQcVebBhWy-53" value="telegram.integration.ts" style="rounded=1;whiteSpace=wrap;html=1;fillColor=#d5e8d4;strokeColor=#82b366;" parent="1" vertex="1">
          <mxGeometry x="-970" y="400" width="220" height="40" as="geometry" />
        </mxCell>
        <mxCell id="HVoTeRBBNDDQcVebBhWy-54" style="edgeStyle=orthogonalEdgeStyle;rounded=1;orthogonalLoop=1;jettySize=auto;html=1;entryX=1;entryY=0.5;entryDx=0;entryDy=0;fillColor=#dae8fc;strokeColor=#6c8ebf;" parent="1" source="HVoTeRBBNDDQcVebBhWy-55" target="HVoTeRBBNDDQcVebBhWy-53" edge="1">
          <mxGeometry relative="1" as="geometry" />
        </mxCell>
        <mxCell id="HVoTeRBBNDDQcVebBhWy-55" value="abstract.integration.ts" style="rounded=1;whiteSpace=wrap;html=1;fillColor=#dae8fc;strokeColor=#6c8ebf;" parent="1" vertex="1">
          <mxGeometry x="-660" y="400" width="180" height="40" as="geometry" />
        </mxCell>
        <mxCell id="HVoTeRBBNDDQcVebBhWy-56" value="methods and properties" style="swimlane;whiteSpace=wrap;html=1;fillColor=#f8cecc;strokeColor=#b85450;rounded=1;" parent="1" vertex="1">
          <mxGeometry x="-597" y="460" width="390" height="340" as="geometry" />
        </mxCell>
        <mxCell id="HVoTeRBBNDDQcVebBhWy-57" value="protected abstract&amp;nbsp;_INTEGRATION_NAME: string" style="rounded=1;whiteSpace=wrap;html=1;fillColor=#fff2cc;strokeColor=#d6b656;" parent="HVoTeRBBNDDQcVebBhWy-56" vertex="1">
          <mxGeometry x="10" y="40" width="370" height="30" as="geometry" />
        </mxCell>
        <mxCell id="HVoTeRBBNDDQcVebBhWy-58" value="protected abstract&amp;nbsp;_loggerService(): ILoggerService" style="rounded=1;whiteSpace=wrap;html=1;fillColor=#fff2cc;strokeColor=#d6b656;" parent="HVoTeRBBNDDQcVebBhWy-56" vertex="1">
          <mxGeometry x="12" y="90" width="370" height="30" as="geometry" />
        </mxCell>
        <mxCell id="HVoTeRBBNDDQcVebBhWy-59" style="edgeStyle=orthogonalEdgeStyle;rounded=1;orthogonalLoop=1;jettySize=auto;html=1;fillColor=#fff2cc;strokeColor=#d6b656;dashed=1;" parent="HVoTeRBBNDDQcVebBhWy-56" source="HVoTeRBBNDDQcVebBhWy-60" edge="1">
          <mxGeometry relative="1" as="geometry">
            <mxPoint x="-40" y="-20" as="targetPoint" />
          </mxGeometry>
        </mxCell>
        <mxCell id="HVoTeRBBNDDQcVebBhWy-60" value="protected abstract onStart(): Promise&amp;lt;boolean&amp;gt;" style="rounded=1;whiteSpace=wrap;html=1;fillColor=#fff2cc;strokeColor=#d6b656;" parent="HVoTeRBBNDDQcVebBhWy-56" vertex="1">
          <mxGeometry x="10" y="140" width="370" height="30" as="geometry" />
        </mxCell>
        <mxCell id="hzBmI6yPxkH__wse7Qrv-3" value="protected abstract onStop(): Promise&amp;lt;void&amp;gt;" style="rounded=1;whiteSpace=wrap;html=1;fillColor=#fff2cc;strokeColor=#d6b656;" vertex="1" parent="HVoTeRBBNDDQcVebBhWy-56">
          <mxGeometry x="12" y="190" width="370" height="30" as="geometry" />
        </mxCell>
        <mxCell id="hzBmI6yPxkH__wse7Qrv-4" value="protected abstract _readConfig(): Promise&amp;lt;void&amp;gt;" style="rounded=1;whiteSpace=wrap;html=1;fillColor=#fff2cc;strokeColor=#d6b656;" vertex="1" parent="HVoTeRBBNDDQcVebBhWy-56">
          <mxGeometry x="12" y="240" width="370" height="30" as="geometry" />
        </mxCell>
        <mxCell id="hzBmI6yPxkH__wse7Qrv-5" value="protected abstract _init(): Promise&amp;lt;boolean&amp;gt;" style="rounded=1;whiteSpace=wrap;html=1;fillColor=#fff2cc;strokeColor=#d6b656;" vertex="1" parent="HVoTeRBBNDDQcVebBhWy-56">
          <mxGeometry x="12" y="290" width="370" height="30" as="geometry" />
        </mxCell>
        <mxCell id="HVoTeRBBNDDQcVebBhWy-61" style="edgeStyle=orthogonalEdgeStyle;rounded=1;orthogonalLoop=1;jettySize=auto;html=1;exitX=0;exitY=0.5;exitDx=0;exitDy=0;fillColor=#fff2cc;strokeColor=#d6b656;dashed=1;entryX=0.125;entryY=0.975;entryDx=0;entryDy=0;entryPerimeter=0;" parent="1" source="HVoTeRBBNDDQcVebBhWy-57" target="HVoTeRBBNDDQcVebBhWy-55" edge="1">
          <mxGeometry relative="1" as="geometry">
            <mxPoint x="-637" y="450" as="targetPoint" />
            <Array as="points">
              <mxPoint x="-587" y="520" />
              <mxPoint x="-637" y="520" />
              <mxPoint x="-637" y="450" />
              <mxPoint x="-638" y="450" />
            </Array>
          </mxGeometry>
        </mxCell>
        <mxCell id="HVoTeRBBNDDQcVebBhWy-62" value="extends" style="edgeLabel;html=1;align=center;verticalAlign=middle;resizable=0;points=[];labelBackgroundColor=#CDA2BE;" parent="1" vertex="1" connectable="0">
          <mxGeometry x="-739.9999999999999" y="420" as="geometry">
            <mxPoint x="41" as="offset" />
          </mxGeometry>
        </mxCell>
        <mxCell id="HVoTeRBBNDDQcVebBhWy-63" style="edgeStyle=orthogonalEdgeStyle;rounded=1;orthogonalLoop=1;jettySize=auto;html=1;entryX=0.128;entryY=1;entryDx=0;entryDy=0;entryPerimeter=0;exitX=0;exitY=0.5;exitDx=0;exitDy=0;fillColor=#fff2cc;strokeColor=#d6b656;dashed=1;" parent="1" source="HVoTeRBBNDDQcVebBhWy-58" target="HVoTeRBBNDDQcVebBhWy-55" edge="1">
          <mxGeometry relative="1" as="geometry" />
        </mxCell>
        <mxCell id="HVoTeRBBNDDQcVebBhWy-66" value="&lt;span style=&quot;color: rgb(0, 0, 0); font-family: Helvetica; font-size: 11px; font-style: normal; font-variant-ligatures: normal; font-variant-caps: normal; font-weight: 400; letter-spacing: normal; orphans: 2; text-align: center; text-indent: 0px; text-transform: none; widows: 2; word-spacing: 0px; -webkit-text-stroke-width: 0px; text-decoration-thickness: initial; text-decoration-style: initial; text-decoration-color: initial; float: none; display: inline !important;&quot;&gt;bind&lt;/span&gt;&lt;br style=&quot;border-color: var(--border-color); color: rgb(0, 0, 0); font-family: Helvetica; font-size: 11px; font-style: normal; font-variant-ligatures: normal; font-variant-caps: normal; font-weight: 400; letter-spacing: normal; orphans: 2; text-align: center; text-indent: 0px; text-transform: none; widows: 2; word-spacing: 0px; -webkit-text-stroke-width: 0px; text-decoration-thickness: initial; text-decoration-style: initial; text-decoration-color: initial;&quot;&gt;&lt;span style=&quot;color: rgb(0, 0, 0); font-family: Helvetica; font-size: 11px; font-style: normal; font-variant-ligatures: normal; font-variant-caps: normal; font-weight: 400; letter-spacing: normal; orphans: 2; text-align: center; text-indent: 0px; text-transform: none; widows: 2; word-spacing: 0px; -webkit-text-stroke-width: 0px; text-decoration-thickness: initial; text-decoration-style: initial; text-decoration-color: initial; float: none; display: inline !important;&quot;&gt;Symbol(&#39;FirebaseIntegration&#39;)&lt;/span&gt;" style="edgeStyle=orthogonalEdgeStyle;rounded=0;orthogonalLoop=1;jettySize=auto;html=1;fillColor=#d5e8d4;strokeColor=#82b366;labelBackgroundColor=#B5739D;exitX=0;exitY=0.5;exitDx=0;exitDy=0;" parent="1" source="HVoTeRBBNDDQcVebBhWy-28" edge="1">
          <mxGeometry relative="1" as="geometry">
            <mxPoint x="-1220" y="840" as="targetPoint" />
            <mxPoint x="-990" y="840" as="sourcePoint" />
            <mxPoint as="offset" />
          </mxGeometry>
        </mxCell>
        <mxCell id="HVoTeRBBNDDQcVebBhWy-67" value="{integration-name}.integration.ts" style="rounded=1;whiteSpace=wrap;html=1;fillColor=#d5e8d4;strokeColor=#82b366;" parent="1" vertex="1">
          <mxGeometry x="-970" y="870" width="220" height="40" as="geometry" />
        </mxCell>
        <mxCell id="HVoTeRBBNDDQcVebBhWy-68" style="edgeStyle=orthogonalEdgeStyle;rounded=1;orthogonalLoop=1;jettySize=auto;html=1;entryX=1;entryY=0.5;entryDx=0;entryDy=0;fillColor=#dae8fc;strokeColor=#6c8ebf;" parent="1" source="HVoTeRBBNDDQcVebBhWy-69" target="HVoTeRBBNDDQcVebBhWy-67" edge="1">
          <mxGeometry relative="1" as="geometry" />
        </mxCell>
        <mxCell id="HVoTeRBBNDDQcVebBhWy-69" value="abstract.integration.ts" style="rounded=1;whiteSpace=wrap;html=1;fillColor=#dae8fc;strokeColor=#6c8ebf;" parent="1" vertex="1">
          <mxGeometry x="-660" y="870" width="180" height="40" as="geometry" />
        </mxCell>
        <mxCell id="HVoTeRBBNDDQcVebBhWy-70" value="extends" style="edgeLabel;html=1;align=center;verticalAlign=middle;resizable=0;points=[];labelBackgroundColor=#CDA2BE;" parent="1" vertex="1" connectable="0">
          <mxGeometry x="-699.9999999999999" y="890" as="geometry" />
        </mxCell>
        <mxCell id="HVoTeRBBNDDQcVebBhWy-71" value="&lt;span style=&quot;color: rgb(0, 0, 0); font-family: Helvetica; font-size: 11px; font-style: normal; font-variant-ligatures: normal; font-variant-caps: normal; font-weight: 400; letter-spacing: normal; orphans: 2; text-align: center; text-indent: 0px; text-transform: none; widows: 2; word-spacing: 0px; -webkit-text-stroke-width: 0px; text-decoration-thickness: initial; text-decoration-style: initial; text-decoration-color: initial; float: none; display: inline !important;&quot;&gt;bind&lt;/span&gt;&lt;br style=&quot;border-color: var(--border-color); color: rgb(0, 0, 0); font-family: Helvetica; font-size: 11px; font-style: normal; font-variant-ligatures: normal; font-variant-caps: normal; font-weight: 400; letter-spacing: normal; orphans: 2; text-align: center; text-indent: 0px; text-transform: none; widows: 2; word-spacing: 0px; -webkit-text-stroke-width: 0px; text-decoration-thickness: initial; text-decoration-style: initial; text-decoration-color: initial;&quot;&gt;&lt;span style=&quot;color: rgb(0, 0, 0); font-family: Helvetica; font-size: 11px; font-style: normal; font-variant-ligatures: normal; font-variant-caps: normal; font-weight: 400; letter-spacing: normal; orphans: 2; text-align: center; text-indent: 0px; text-transform: none; widows: 2; word-spacing: 0px; -webkit-text-stroke-width: 0px; text-decoration-thickness: initial; text-decoration-style: initial; text-decoration-color: initial; float: none; display: inline !important;&quot;&gt;Symbol(&#39;{Framework-name}Integration&#39;)&lt;/span&gt;" style="edgeStyle=orthogonalEdgeStyle;rounded=0;orthogonalLoop=1;jettySize=auto;html=1;fillColor=#d5e8d4;strokeColor=#82b366;labelBackgroundColor=#B5739D;exitX=0;exitY=0.5;exitDx=0;exitDy=0;" parent="1" source="HVoTeRBBNDDQcVebBhWy-67" edge="1">
          <mxGeometry relative="1" as="geometry">
            <mxPoint x="-1220" y="890" as="targetPoint" />
            <mxPoint x="-990" y="890" as="sourcePoint" />
          </mxGeometry>
        </mxCell>
        <mxCell id="hzBmI6yPxkH__wse7Qrv-6" style="edgeStyle=orthogonalEdgeStyle;rounded=1;orthogonalLoop=1;jettySize=auto;html=1;entryX=0.127;entryY=0.995;entryDx=0;entryDy=0;entryPerimeter=0;exitX=0;exitY=0.5;exitDx=0;exitDy=0;dashed=1;fillColor=#fff2cc;strokeColor=#d6b656;" edge="1" parent="1" source="hzBmI6yPxkH__wse7Qrv-3" target="HVoTeRBBNDDQcVebBhWy-55">
          <mxGeometry relative="1" as="geometry" />
        </mxCell>
        <mxCell id="hzBmI6yPxkH__wse7Qrv-7" style="edgeStyle=orthogonalEdgeStyle;rounded=1;orthogonalLoop=1;jettySize=auto;html=1;entryX=0.124;entryY=0.971;entryDx=0;entryDy=0;entryPerimeter=0;exitX=0;exitY=0.5;exitDx=0;exitDy=0;dashed=1;fillColor=#fff2cc;strokeColor=#d6b656;" edge="1" parent="1" source="hzBmI6yPxkH__wse7Qrv-4" target="HVoTeRBBNDDQcVebBhWy-55">
          <mxGeometry relative="1" as="geometry" />
        </mxCell>
        <mxCell id="hzBmI6yPxkH__wse7Qrv-8" style="edgeStyle=orthogonalEdgeStyle;rounded=1;orthogonalLoop=1;jettySize=auto;html=1;entryX=0.124;entryY=0.987;entryDx=0;entryDy=0;entryPerimeter=0;exitX=0;exitY=0.5;exitDx=0;exitDy=0;dashed=1;fillColor=#fff2cc;strokeColor=#d6b656;" edge="1" parent="1" source="hzBmI6yPxkH__wse7Qrv-5" target="HVoTeRBBNDDQcVebBhWy-55">
          <mxGeometry relative="1" as="geometry" />
        </mxCell>
      </root>
    </mxGraphModel>
  </diagram>
</mxfile>
